#!OML:ASF F:\VICON\USERDATA\INSTALL\rory3\rory3.ASF
:FULLY-SPECIFIED
:DEGREES
3716
root -4.70404 17.8242 11.2641 -357.026 42.5829 -353.703
lowerback 10.2509 0.617907 -0.216552
upperback 1.29091 0.860971 0.92852
thorax -4.42032 0.444936 0.967986
lowerneck -17.2467 -0.825827 -11.1927
upperneck 39.7509 2.86212 2.29694
head 17.3971 0.0479451 3.67779
rclavicle -1.17283e-014 -9.54166e-015
rhumerus -34.4052 -10.6403 -74.617
rradius 38.8973
rwrist 2.45381
rhand -21.7236 11.1381
rfingers 7.12502
rthumb 4.67571 -18.7903
lclavicle -1.17283e-014 -9.54166e-015
lhumerus -28.1397 -0.638859 91.3637
lradius 28.9737
lwrist -6.00187
lhand -18.8444 26.7018
lfingers 7.12502
lthumb 7.45536 56.5504
rfemur -7.08371 1.70604 2.70906
rtibia 29.6771
rfoot -5.09739 -25.9645
rtoes 8.5723
lfemur -4.33463 -3.18923 -19.2042
ltibia 17.8723
lfoot -8.24401 -3.77012
ltoes -13.7616
3717
root -4.6474 17.8269 11.201 -356.795 42.6147 -353.41
lowerback 10.2241 0.760217 -0.60811
upperback 1.32445 1.00793 0.963573
thorax -4.38056 0.524272 1.20513
lowerneck -17.1947 -0.864177 -11.2502
upperneck 39.7211 2.80458 2.33395
head 17.3715 0.0255024 3.69249
rclavicle 4.2043e-014 -1.66979e-014
rhumerus -34.4942 -10.7139 -74.5843
rradius 39.0149
rwrist 2.58747
rhand -21.655 11.1781
rfingers 7.12502
rthumb 4.74192 -18.7488
lclavicle 4.2043e-014 -1.66979e-014
lhumerus -27.8633 -0.973868 91.5636
lradius 28.8353
lwrist -6.28723
lhand -18.8799 26.3732
lfingers 7.12502
lthumb 7.42103 56.223
rfemur -7.36897 2.07283 2.40076
rtibia 30.0702
rfoot -4.93757 -26.1021
rtoes 11.1711
lfemur -4.44933 -2.5658 -19.6721
ltibia 17.8239
lfoot -8.25837 -4.51924
ltoes -12.5322
3718
root -4.59532 17.829 11.1361 -356.566 42.7025 -353.078
lowerback 10.3044 0.825682 -0.983458
upperback 1.34723 1.05264 0.959002
thorax -4.40926 0.552722 1.40495
lowerneck -17.1682 -0.817525 -11.1282
upperneck 39.6838 2.84968 2.27943
head 17.3408 0.0583077 3.6525
rclavicle 9.14409e-015 -1.74931e-014
rhumerus -34.5246 -10.6741 -74.6743
rradius 39.083
rwrist 2.71373
rhand -21.4119 11.2003
rfingers 7.12502
rthumb 4.97666 -18.7212
lclavicle 9.14409e-015 -1.74931e-014
lhumerus -27.5779 -0.963944 91.5591
lradius 28.6918
lwrist -7.12775
lhand -18.5289 25.3765
lfingers 7.12502
lthumb 7.75984 55.2141
rfemur -7.66342 2.23681 2.06848
rtibia 30.6002
rfoot -5.00881 -25.5953
rtoes 14.0671
lfemur -4.50218 -2.1221 -20.1654
ltibia 17.7431
lfoot -8.2806 -5.18156
ltoes -11.4974
3719
root -4.54453 17.8276 11.0717 -356.307 42.8161 -352.703
lowerback 10.3893 0.833633 -1.32469
upperback 1.35218 1.02168 0.90639
thorax -4.45524 0.543041 1.54598
lowerneck -17.0908 -0.706611 -11.0077
upperneck 39.5918 2.97996 2.22738
head 17.2576 0.128869 3.62556
rclavicle 6.54002e-014 3.18055e-015
rhumerus -34.5387 -10.5746 -74.8874
rradius 39.1374
rwrist 2.77116
rhand -21.334 11.1067
rfingers 7.12502
rthumb 5.05182 -18.8131
lclavicle 6.54002e-014 3.18055e-015
lhumerus -27.5269 -1.17804 91.5421
lradius 28.954
lwrist -7.50695
lhand -18.1789 26.0564
lfingers 7.12502
lthumb 8.09764 55.8813
rfemur -7.98845 2.27476 1.70031
rtibia 31.2341
rfoot -5.20781 -24.3828
rtoes 15.7484
lfemur -4.55957 -1.73608 -20.6996
ltibia 17.7037
lfoot -8.28703 -5.78595
ltoes -11.376
3720
root -4.49454 17.8239 11.0069 -356.004 42.944 -352.325
lowerback 10.4108 0.856109 -1.62166
upperback 1.35808 1.01374 0.824686
thorax -4.46435 0.543526 1.62922
lowerneck -17.0636 -0.626176 -11.0397
upperneck 39.5529 3.0498 2.37374
head 17.2139 0.177142 3.7085
rclavicle -1.799e-014 -1.59028e-014
rhumerus -34.5441 -10.6626 -75.0863
rradius 39.189
rwrist 2.787
rhand -21.0875 11.1523
rfingers 7.12502
rthumb 5.28991 -18.7617
lclavicle -1.799e-014 -1.59028e-014
lhumerus -27.649 -1.9818 91.6396
lradius 29.5454
lwrist -6.91139
lhand -18.105 26.0955
lfingers 7.12502
lthumb 8.16895 55.9176
rfemur -8.38648 2.14456 1.34049
rtibia 31.9675
rfoot -5.55723 -22.5056
rtoes 15.6874
lfemur -4.72013 -1.3195 -21.2563
ltibia 17.7175
lfoot -8.36781 -6.35758
ltoes -11.8254
3721
root -4.44814 17.8215 10.9434 -355.829 43.0882 -352.142
lowerback 10.4185 0.884064 -1.7794
upperback 1.3783 1.03107 0.781247
thorax -4.45015 0.554225 1.67045
lowerneck -17.0397 -0.550511 -10.9817
upperneck 39.5315 3.11285 2.44619
head 17.185 0.225077 3.74161
rclavicle -1.77912e-014 1.03368e-014
rhumerus -34.511 -10.7457 -75.3212
rradius 39.1904
rwrist 2.93657
rhand -21.1504 11.3079
rfingers 7.12502
rthumb 5.22915 -18.6076
lclavicle -1.77912e-014 1.03368e-014
lhumerus -27.7615 -2.81115 91.7255
lradius 30.1133
lwrist -6.113
lhand -18.2785 25.4125
lfingers 7.12502
lthumb 8.00152 55.241
rfemur -8.81043 2.06345 1.20713
rtibia 32.789
rfoot -6.15564 -20.2912
rtoes 15.7091
lfemur -4.89653 -1.06218 -21.6423
ltibia 17.7877
lfoot -8.49696 -6.8165
ltoes -11.3426
3722
root -4.40647 17.8205 10.8821 -355.59 43.2698 -351.931
lowerback 10.4035 0.890012 -1.97352
upperback 1.39957 1.01527 0.732272
thorax -4.4213 0.548922 1.7314
lowerneck -17.088 -0.464059 -10.8799
upperneck 39.5185 3.21097 2.45964
head 17.1787 0.28354 3.74839
rclavicle 5.13858e-014 3.97569e-015
rhumerus -34.426 -10.7598 -75.6564
rradius 39.1643
rwrist 3.20487
rhand -21.4097 11.1991
rfingers 7.12502
rthumb 4.97871 -18.7224
lclavicle 5.13858e-014 3.97569e-015
lhumerus -27.773 -3.22038 91.6653
lradius 30.5548
lwrist -5.94247
lhand -18.1262 25.3406
lfingers 7.12502
lthumb 8.14854 55.1635
rfemur -9.2981 1.94964 1.13946
rtibia 33.6865
rfoot -7.04074 -17.9093
rtoes 14.6742
lfemur -5.16738 -1.01381 -22.0349
ltibia 17.9643
lfoot -8.55871 -7.09142
ltoes -10.6317
3723
root -4.36553 17.8189 10.8208 -355.372 43.4659 -351.68
lowerback 10.4537 0.901333 -2.17616
upperback 1.43739 1.00278 0.640782
thorax -4.41089 0.545188 1.75171
lowerneck -17.2456 -0.418882 -10.8304
upperneck 39.584 3.24993 2.562
head 17.2459 0.316921 3.80086
rclavicle -7.55382e-015 7.95139e-015
rhumerus -34.3471 -10.8191 -76.0397
rradius 39.168
rwrist 3.34074
rhand -21.5327 11.0709
rfingers 7.12502
rthumb 4.85999 -18.8534
lclavicle -7.55382e-015 7.95139e-015
lhumerus -27.6792 -3.48599 91.5019
lradius 30.8459
lwrist -5.89301
lhand -17.9 25.2252
lfingers 7.12502
lthumb 8.36684 55.0395
rfemur -9.74823 1.64556 1.1097
rtibia 34.6397
rfoot -8.12842 -15.372
rtoes 11.575
lfemur -5.46099 -1.00017 -22.4808
ltibia 18.2595
lfoot -8.7 -7.20478
ltoes -10.4626
3724
root -4.32611 17.8144 10.759 -355.218 43.6204 -351.489
lowerback 10.5436 0.949204 -2.33208
upperback 1.46712 1.04468 0.584988
thorax -4.43347 0.568237 1.77461
lowerneck -17.3094 -0.42744 -10.76
upperneck 39.63 3.25123 2.50876
head 17.2909 0.318619 3.76885
rclavicle -4.60187e-014 7.15625e-015
rhumerus -34.3042 -10.7394 -76.3591
rradius 39.1998
rwrist 3.34656
rhand -21.6866 11.0138
rfingers 7.12502
rthumb 4.7114 -18.9138
lclavicle -4.60187e-014 7.15625e-015
lhumerus -27.5944 -3.93752 91.432
lradius 31.0812
lwrist -5.61424
lhand -18.0614 25.0278
lfingers 7.12502
lthumb 8.21109 54.8483
rfemur -10.1872 1.37741 1.17131
rtibia 35.6127
rfoot -9.29651 -12.9946
rtoes 7.63581
lfemur -5.75512 -1.05999 -22.8895
ltibia 18.6325
lfoot -8.86185 -7.19676
ltoes -9.88348
3725
root -4.29066 17.809 10.6998 -355.263 43.815 -351.591
lowerback 10.7026 0.950201 -2.23768
upperback 1.44338 1.05401 0.602931
thorax -4.54581 0.572911 1.7367
lowerneck -17.383 -0.378899 -10.776
upperneck 39.7846 3.36011 2.52071
head 17.3853 0.356365 3.80743
rclavicle -1.39149e-015 -7.95139e-016
rhumerus -34.2805 -10.645 -76.6191
rradius 39.1674
rwrist 3.49141
rhand -21.5816 11.1072
rfingers 7.12502
rthumb 4.81274 -18.8181
lclavicle -1.39149e-015 -7.95139e-016
lhumerus -27.6787 -4.46294 91.391
lradius 31.4815
lwrist -5.19822
lhand -18.1371 24.9057
lfingers 7.12502
lthumb 8.13802 54.729
rfemur -10.5927 1.1782 1.55232
rtibia 36.5654
rfoot -10.4401 -10.9069
rtoes 3.69032
lfemur -6.05995 -1.19358 -23.0233
ltibia 19.0586
lfoot -8.93783 -7.20407
ltoes -8.20172
3726
root -4.25444 17.8052 10.643 -355.471 44.0658 -351.757
lowerback 11.0138 0.896167 -2.06048
upperback 1.39214 0.997306 0.621685
thorax -4.76718 0.544765 1.66086
lowerneck -17.3455 -0.229583 -10.8096
upperneck 39.896 3.58507 2.59744
head 17.4108 0.452353 3.895
rclavicle -1.29508e-013 6.36111e-015
rhumerus -34.3184 -10.5051 -76.9245
rradius 39.1197
rwrist 3.50991
rhand -21.3106 11.2918
rfingers 7.12502
rthumb 5.07446 -18.6275
lclavicle -1.29508e-013 6.36111e-015
lhumerus -27.8187 -4.72442 91.2664
lradius 31.7933
lwrist -4.94139
lhand -18.0943 24.6863
lfingers 7.12502
lthumb 8.17937 54.508
rfemur -10.802 0.965143 2.0541
rtibia 37.444
rfoot -11.5916 -8.92106
rtoes 0.531072
lfemur -6.27466 -1.30605 -23.1015
ltibia 19.5897
lfoot -9.09687 -7.2771
ltoes -6.9047
